<mxfile host="Electron" modified="2024-03-30T02:29:47.514Z" agent="Mozilla/5.0 (Windows NT 10.0; Win64; x64) AppleWebKit/537.36 (KHTML, like Gecko) draw.io/24.1.0 Chrome/120.0.6099.109 Electron/28.1.0 Safari/537.36" etag="7V7wYY_mQj13AcBhad4x" version="24.1.0" type="device">
  <diagram name="第 1 页" id="GSBP9Ic8UuohEQc4Tbug">
    <mxGraphModel dx="2389" dy="909" grid="1" gridSize="10" guides="1" tooltips="1" connect="1" arrows="1" fold="1" page="1" pageScale="1" pageWidth="827" pageHeight="1169" math="0" shadow="0">
      <root>
        <mxCell id="0" />
        <mxCell id="1" parent="0" />
        <mxCell id="6lm8IAxUkwgbGVxYbnwS-27" style="edgeStyle=orthogonalEdgeStyle;rounded=0;orthogonalLoop=1;jettySize=auto;html=1;exitX=0.5;exitY=1;exitDx=0;exitDy=0;" parent="1" source="6lm8IAxUkwgbGVxYbnwS-2" target="6lm8IAxUkwgbGVxYbnwS-26" edge="1">
          <mxGeometry relative="1" as="geometry" />
        </mxCell>
        <mxCell id="6lm8IAxUkwgbGVxYbnwS-28" value="(5)" style="edgeLabel;html=1;align=center;verticalAlign=middle;resizable=0;points=[];" parent="6lm8IAxUkwgbGVxYbnwS-27" vertex="1" connectable="0">
          <mxGeometry x="-0.2067" y="-1" relative="1" as="geometry">
            <mxPoint as="offset" />
          </mxGeometry>
        </mxCell>
        <mxCell id="6lm8IAxUkwgbGVxYbnwS-29" style="edgeStyle=orthogonalEdgeStyle;rounded=0;orthogonalLoop=1;jettySize=auto;html=1;exitX=0.5;exitY=0;exitDx=0;exitDy=0;" parent="1" source="6lm8IAxUkwgbGVxYbnwS-2" target="6lm8IAxUkwgbGVxYbnwS-17" edge="1">
          <mxGeometry relative="1" as="geometry" />
        </mxCell>
        <mxCell id="6lm8IAxUkwgbGVxYbnwS-30" value="(4)" style="edgeLabel;html=1;align=center;verticalAlign=middle;resizable=0;points=[];" parent="6lm8IAxUkwgbGVxYbnwS-29" vertex="1" connectable="0">
          <mxGeometry x="0.0044" y="1" relative="1" as="geometry">
            <mxPoint as="offset" />
          </mxGeometry>
        </mxCell>
        <mxCell id="6lm8IAxUkwgbGVxYbnwS-2" value="frontend" style="ellipse;whiteSpace=wrap;html=1;" parent="1" vertex="1">
          <mxGeometry x="-170" y="260" width="90" height="50" as="geometry" />
        </mxCell>
        <mxCell id="6lm8IAxUkwgbGVxYbnwS-4" value="user" style="ellipse;whiteSpace=wrap;html=1;" parent="1" vertex="1">
          <mxGeometry x="-60" y="195" width="100" height="60" as="geometry" />
        </mxCell>
        <mxCell id="6lm8IAxUkwgbGVxYbnwS-5" value="review_storage" style="ellipse;whiteSpace=wrap;html=1;" parent="1" vertex="1">
          <mxGeometry y="370" width="100" height="60" as="geometry" />
        </mxCell>
        <mxCell id="6lm8IAxUkwgbGVxYbnwS-10" value="" style="endArrow=classic;html=1;rounded=0;entryX=0;entryY=1;entryDx=0;entryDy=0;" parent="1" target="6lm8IAxUkwgbGVxYbnwS-4" edge="1">
          <mxGeometry width="50" height="50" relative="1" as="geometry">
            <mxPoint x="-90" y="270" as="sourcePoint" />
            <mxPoint x="-40" y="220" as="targetPoint" />
          </mxGeometry>
        </mxCell>
        <mxCell id="6lm8IAxUkwgbGVxYbnwS-12" value="(1)" style="edgeLabel;html=1;align=center;verticalAlign=middle;resizable=0;points=[];" parent="6lm8IAxUkwgbGVxYbnwS-10" vertex="1" connectable="0">
          <mxGeometry x="-0.1107" relative="1" as="geometry">
            <mxPoint y="1" as="offset" />
          </mxGeometry>
        </mxCell>
        <mxCell id="6lm8IAxUkwgbGVxYbnwS-11" value="" style="endArrow=classic;html=1;rounded=0;entryX=0;entryY=0;entryDx=0;entryDy=0;" parent="1" target="6lm8IAxUkwgbGVxYbnwS-48" edge="1">
          <mxGeometry width="50" height="50" relative="1" as="geometry">
            <mxPoint x="-90" y="300" as="sourcePoint" />
            <mxPoint x="-40" y="300" as="targetPoint" />
          </mxGeometry>
        </mxCell>
        <mxCell id="6lm8IAxUkwgbGVxYbnwS-13" value="(2)" style="edgeLabel;html=1;align=center;verticalAlign=middle;resizable=0;points=[];" parent="6lm8IAxUkwgbGVxYbnwS-11" vertex="1" connectable="0">
          <mxGeometry x="-0.1488" relative="1" as="geometry">
            <mxPoint as="offset" />
          </mxGeometry>
        </mxCell>
        <mxCell id="6lm8IAxUkwgbGVxYbnwS-14" value="" style="endArrow=classic;html=1;rounded=0;entryX=0;entryY=0.5;entryDx=0;entryDy=0;" parent="1" target="6lm8IAxUkwgbGVxYbnwS-4" edge="1">
          <mxGeometry width="50" height="50" relative="1" as="geometry">
            <mxPoint x="-120" y="260" as="sourcePoint" />
            <mxPoint x="-70" y="210" as="targetPoint" />
          </mxGeometry>
        </mxCell>
        <mxCell id="6lm8IAxUkwgbGVxYbnwS-15" value="(3)" style="edgeLabel;html=1;align=center;verticalAlign=middle;resizable=0;points=[];" parent="6lm8IAxUkwgbGVxYbnwS-14" vertex="1" connectable="0">
          <mxGeometry x="-0.04" relative="1" as="geometry">
            <mxPoint as="offset" />
          </mxGeometry>
        </mxCell>
        <mxCell id="6lm8IAxUkwgbGVxYbnwS-16" value="&lt;div style=&quot;text-align: justify; font-size: 14px;&quot;&gt;&lt;span style=&quot;background-color: initial;&quot;&gt;&lt;font style=&quot;font-size: 14px;&quot;&gt;&lt;b&gt;(0) compose&lt;/b&gt;&lt;/font&gt;&lt;/span&gt;&lt;/div&gt;&lt;div style=&quot;text-align: justify; font-size: 14px;&quot;&gt;&lt;span style=&quot;background-color: initial;&quot;&gt;&lt;font style=&quot;font-size: 14px;&quot;&gt;&lt;b&gt;(1) login&lt;/b&gt;&lt;/font&gt;&lt;/span&gt;&lt;/div&gt;&lt;div style=&quot;text-align: justify; font-size: 14px;&quot;&gt;&lt;font style=&quot;font-size: 14px;&quot;&gt;&lt;b&gt;(2) get_unique_id&lt;/b&gt;&lt;/font&gt;&lt;/div&gt;&lt;div style=&quot;text-align: justify; font-size: 14px;&quot;&gt;&lt;font style=&quot;font-size: 14px;&quot;&gt;&lt;b&gt;(3) ro_get_user_id&lt;/b&gt;&lt;/font&gt;&lt;/div&gt;&lt;div style=&quot;text-align: justify; font-size: 14px;&quot;&gt;&lt;font style=&quot;font-size: 14px;&quot;&gt;&lt;b&gt;(4)&amp;nbsp;&lt;span style=&quot;background-color: initial;&quot;&gt;ro_get_movie_id&lt;/span&gt;&lt;/b&gt;&lt;/font&gt;&lt;/div&gt;&lt;div style=&quot;text-align: justify; font-size: 14px;&quot;&gt;&lt;span style=&quot;background-color: initial;&quot;&gt;&lt;font style=&quot;font-size: 14px;&quot;&gt;&lt;b&gt;(5) compose_review&lt;/b&gt;&lt;/font&gt;&lt;/span&gt;&lt;/div&gt;&lt;div style=&quot;text-align: justify; font-size: 14px;&quot;&gt;&lt;font style=&quot;font-size: 14px;&quot;&gt;&lt;b&gt;(6) store_review&lt;span style=&quot;background-color: initial;&quot;&gt;&lt;br&gt;&lt;/span&gt;&lt;/b&gt;&lt;/font&gt;&lt;/div&gt;&lt;div style=&quot;text-align: justify; font-size: 14px;&quot;&gt;&lt;font style=&quot;font-size: 14px;&quot;&gt;&lt;b&gt;(7) upload_movie_review&lt;br&gt;&lt;/b&gt;&lt;/font&gt;&lt;/div&gt;&lt;div style=&quot;text-align: justify; font-size: 14px;&quot;&gt;&lt;font style=&quot;font-size: 14px;&quot;&gt;&lt;b&gt;(8) upload_user_review&lt;br&gt;&lt;/b&gt;&lt;/font&gt;&lt;/div&gt;&lt;div style=&quot;text-align: justify; font-size: 14px;&quot;&gt;&lt;font style=&quot;font-size: 14px;&quot;&gt;&lt;b&gt;(9) ro_read_reviews(movie_id)&lt;br&gt;&lt;/b&gt;&lt;/font&gt;&lt;/div&gt;&lt;div style=&quot;text-align: justify; font-size: 14px;&quot;&gt;&lt;font style=&quot;font-size: 14px;&quot;&gt;&lt;b&gt;(10) ro_read_reviews&lt;span style=&quot;background-color: initial;&quot;&gt;(user_id)&lt;/span&gt;&lt;br&gt;&lt;/b&gt;&lt;/font&gt;&lt;/div&gt;&lt;div style=&quot;text-align: justify; font-size: 14px;&quot;&gt;&lt;span style=&quot;background-color: initial;&quot;&gt;&lt;font style=&quot;font-size: 14px;&quot;&gt;&lt;b&gt;(11) ro_read_movie_reviews&lt;/b&gt;&lt;/font&gt;&lt;/span&gt;&lt;/div&gt;&lt;div style=&quot;text-align: justify; font-size: 14px;&quot;&gt;&lt;font style=&quot;font-size: 14px;&quot;&gt;&lt;b&gt;&lt;span style=&quot;background-color: initial;&quot;&gt;(12)&amp;nbsp;&lt;/span&gt;&lt;span style=&quot;background-color: rgb(255, 255, 255); color: rgb(51, 51, 51); font-family: &amp;quot;Open Sans&amp;quot;, &amp;quot;Clear Sans&amp;quot;, &amp;quot;Helvetica Neue&amp;quot;, Helvetica, Arial, &amp;quot;Segoe UI Emoji&amp;quot;, sans-serif; orphans: 4; text-align: left; white-space-collapse: preserve;&quot;&gt;&lt;font style=&quot;font-size: 14px;&quot;&gt;ro_read_cast_infos&lt;/font&gt;&lt;/span&gt;&lt;/b&gt;&lt;/font&gt;&lt;/div&gt;&lt;div style=&quot;text-align: justify; font-size: 14px;&quot;&gt;&lt;font style=&quot;font-size: 14px;&quot;&gt;&lt;b&gt;&lt;span style=&quot;background-color: initial;&quot;&gt;(13)&amp;nbsp;&lt;/span&gt;&lt;span style=&quot;white-space-collapse: preserve; background-color: rgb(255, 255, 255); color: rgb(51, 51, 51); font-family: &amp;quot;Open Sans&amp;quot;, &amp;quot;Clear Sans&amp;quot;, &amp;quot;Helvetica Neue&amp;quot;, Helvetica, Arial, &amp;quot;Segoe UI Emoji&amp;quot;, sans-serif; orphans: 4; text-align: left;&quot;&gt;ro_read_plot&lt;/span&gt;&lt;span style=&quot;background-color: rgb(255, 255, 255); color: rgb(51, 51, 51); font-family: &amp;quot;Open Sans&amp;quot;, &amp;quot;Clear Sans&amp;quot;, &amp;quot;Helvetica Neue&amp;quot;, Helvetica, Arial, &amp;quot;Segoe UI Emoji&amp;quot;, sans-serif; orphans: 4; text-align: left; white-space-collapse: preserve;&quot;&gt;&lt;font style=&quot;font-size: 14px;&quot;&gt;&lt;br&gt;&lt;/font&gt;&lt;/span&gt;&lt;/b&gt;&lt;/font&gt;&lt;/div&gt;&lt;div style=&quot;text-align: justify; font-size: 14px;&quot;&gt;&lt;font style=&quot;font-size: 14px;&quot;&gt;&lt;b&gt;&lt;span style=&quot;background-color: initial;&quot;&gt;(12)&amp;nbsp;&lt;/span&gt;&lt;span style=&quot;white-space-collapse: preserve; background-color: rgb(255, 255, 255); color: rgb(51, 51, 51); font-family: &amp;quot;Open Sans&amp;quot;, &amp;quot;Clear Sans&amp;quot;, &amp;quot;Helvetica Neue&amp;quot;, Helvetica, Arial, &amp;quot;Segoe UI Emoji&amp;quot;, sans-serif; orphans: 4; text-align: left;&quot;&gt;ro_read_cast_infos&lt;/span&gt;&lt;/b&gt;&lt;/font&gt;&lt;span style=&quot;font-size: 13px; white-space-collapse: preserve; background-color: rgb(255, 255, 255); color: rgb(51, 51, 51); font-family: &amp;quot;Open Sans&amp;quot;, &amp;quot;Clear Sans&amp;quot;, &amp;quot;Helvetica Neue&amp;quot;, Helvetica, Arial, &amp;quot;Segoe UI Emoji&amp;quot;, sans-serif; orphans: 4; text-align: left;&quot;&gt;&lt;br&gt;&lt;/span&gt;&lt;/div&gt;&lt;div style=&quot;text-align: justify; font-size: 14px;&quot;&gt;&lt;font style=&quot;font-size: 14px;&quot;&gt;&lt;b&gt;&lt;span style=&quot;background-color: initial;&quot;&gt;(13)&amp;nbsp;&lt;/span&gt;&lt;span style=&quot;white-space-collapse: preserve; background-color: rgb(255, 255, 255); color: rgb(51, 51, 51); font-family: &amp;quot;Open Sans&amp;quot;, &amp;quot;Clear Sans&amp;quot;, &amp;quot;Helvetica Neue&amp;quot;, Helvetica, Arial, &amp;quot;Segoe UI Emoji&amp;quot;, sans-serif; orphans: 4; text-align: left;&quot;&gt;ro_read_plot&lt;/span&gt;&lt;/b&gt;&lt;b&gt;&lt;span style=&quot;white-space-collapse: preserve; background-color: rgb(255, 255, 255); color: rgb(51, 51, 51); font-family: &amp;quot;Open Sans&amp;quot;, &amp;quot;Clear Sans&amp;quot;, &amp;quot;Helvetica Neue&amp;quot;, Helvetica, Arial, &amp;quot;Segoe UI Emoji&amp;quot;, sans-serif; orphans: 4; text-align: left;&quot;&gt;&lt;br&gt;&lt;/span&gt;&lt;/b&gt;&lt;/font&gt;&lt;/div&gt;&lt;div style=&quot;text-align: justify; font-size: 14px;&quot;&gt;&lt;font style=&quot;font-size: 14px;&quot;&gt;&lt;b&gt;&lt;span style=&quot;background-color: initial;&quot;&gt;(14)&amp;nbsp;&lt;/span&gt;&lt;span style=&quot;white-space-collapse: preserve; background-color: rgb(255, 255, 255); color: rgb(51, 51, 51); font-family: &amp;quot;Open Sans&amp;quot;, &amp;quot;Clear Sans&amp;quot;, &amp;quot;Helvetica Neue&amp;quot;, Helvetica, Arial, &amp;quot;Segoe UI Emoji&amp;quot;, sans-serif; orphans: 4; text-align: left;&quot;&gt;ro_read_movie_infos&lt;/span&gt;&lt;/b&gt;&lt;b&gt;&lt;span style=&quot;white-space-collapse: preserve; background-color: rgb(255, 255, 255); color: rgb(51, 51, 51); font-family: &amp;quot;Open Sans&amp;quot;, &amp;quot;Clear Sans&amp;quot;, &amp;quot;Helvetica Neue&amp;quot;, Helvetica, Arial, &amp;quot;Segoe UI Emoji&amp;quot;, sans-serif; orphans: 4; text-align: left;&quot;&gt;&lt;br&gt;&lt;/span&gt;&lt;/b&gt;&lt;/font&gt;&lt;/div&gt;" style="text;html=1;align=center;verticalAlign=middle;whiteSpace=wrap;rounded=0;" parent="1" vertex="1">
          <mxGeometry x="285" y="122.5" width="210" height="325" as="geometry" />
        </mxCell>
        <mxCell id="6lm8IAxUkwgbGVxYbnwS-17" value="movie_id" style="ellipse;whiteSpace=wrap;html=1;" parent="1" vertex="1">
          <mxGeometry x="-175" y="140" width="100" height="60" as="geometry" />
        </mxCell>
        <mxCell id="6lm8IAxUkwgbGVxYbnwS-22" value="" style="endArrow=classic;html=1;rounded=0;entryX=0;entryY=0.5;entryDx=0;entryDy=0;" parent="1" target="6lm8IAxUkwgbGVxYbnwS-2" edge="1">
          <mxGeometry width="50" height="50" relative="1" as="geometry">
            <mxPoint x="-270" y="285" as="sourcePoint" />
            <mxPoint x="-220" y="230" as="targetPoint" />
          </mxGeometry>
        </mxCell>
        <mxCell id="6lm8IAxUkwgbGVxYbnwS-25" value="(0)" style="edgeLabel;html=1;align=center;verticalAlign=middle;resizable=0;points=[];" parent="6lm8IAxUkwgbGVxYbnwS-22" vertex="1" connectable="0">
          <mxGeometry x="-0.036" y="3" relative="1" as="geometry">
            <mxPoint x="2" y="3" as="offset" />
          </mxGeometry>
        </mxCell>
        <mxCell id="6lm8IAxUkwgbGVxYbnwS-36" style="edgeStyle=orthogonalEdgeStyle;rounded=0;orthogonalLoop=1;jettySize=auto;html=1;exitX=0.5;exitY=1;exitDx=0;exitDy=0;entryX=1;entryY=0.5;entryDx=0;entryDy=0;" parent="1" source="6lm8IAxUkwgbGVxYbnwS-26" target="6lm8IAxUkwgbGVxYbnwS-35" edge="1">
          <mxGeometry relative="1" as="geometry" />
        </mxCell>
        <mxCell id="6lm8IAxUkwgbGVxYbnwS-37" value="(7)" style="edgeLabel;html=1;align=center;verticalAlign=middle;resizable=0;points=[];" parent="6lm8IAxUkwgbGVxYbnwS-36" vertex="1" connectable="0">
          <mxGeometry x="-0.18" y="1" relative="1" as="geometry">
            <mxPoint y="-51" as="offset" />
          </mxGeometry>
        </mxCell>
        <mxCell id="6lm8IAxUkwgbGVxYbnwS-43" style="edgeStyle=orthogonalEdgeStyle;rounded=0;orthogonalLoop=1;jettySize=auto;html=1;exitX=0;exitY=0.5;exitDx=0;exitDy=0;entryX=1;entryY=0.5;entryDx=0;entryDy=0;" parent="1" source="6lm8IAxUkwgbGVxYbnwS-26" target="6lm8IAxUkwgbGVxYbnwS-42" edge="1">
          <mxGeometry relative="1" as="geometry" />
        </mxCell>
        <mxCell id="6lm8IAxUkwgbGVxYbnwS-44" value="(8)" style="edgeLabel;html=1;align=center;verticalAlign=middle;resizable=0;points=[];" parent="6lm8IAxUkwgbGVxYbnwS-43" vertex="1" connectable="0">
          <mxGeometry x="-0.03" relative="1" as="geometry">
            <mxPoint as="offset" />
          </mxGeometry>
        </mxCell>
        <mxCell id="6lm8IAxUkwgbGVxYbnwS-26" value="&lt;span style=&quot;text-align: justify;&quot;&gt;compose_review&lt;/span&gt;" style="ellipse;whiteSpace=wrap;html=1;" parent="1" vertex="1">
          <mxGeometry x="-175" y="370" width="100" height="60" as="geometry" />
        </mxCell>
        <mxCell id="6lm8IAxUkwgbGVxYbnwS-32" value="" style="endArrow=classic;html=1;rounded=0;entryX=0;entryY=0.5;entryDx=0;entryDy=0;exitX=1;exitY=0.5;exitDx=0;exitDy=0;" parent="1" source="6lm8IAxUkwgbGVxYbnwS-26" target="6lm8IAxUkwgbGVxYbnwS-5" edge="1">
          <mxGeometry width="50" height="50" relative="1" as="geometry">
            <mxPoint x="-90" y="380" as="sourcePoint" />
            <mxPoint x="-40" y="330" as="targetPoint" />
          </mxGeometry>
        </mxCell>
        <mxCell id="6lm8IAxUkwgbGVxYbnwS-33" value="(6)" style="edgeLabel;html=1;align=center;verticalAlign=middle;resizable=0;points=[];" parent="6lm8IAxUkwgbGVxYbnwS-32" vertex="1" connectable="0">
          <mxGeometry x="0.0352" y="-1" relative="1" as="geometry">
            <mxPoint x="-8" y="-1" as="offset" />
          </mxGeometry>
        </mxCell>
        <mxCell id="6lm8IAxUkwgbGVxYbnwS-39" style="edgeStyle=orthogonalEdgeStyle;rounded=0;orthogonalLoop=1;jettySize=auto;html=1;exitX=0.5;exitY=1;exitDx=0;exitDy=0;entryX=0.5;entryY=1;entryDx=0;entryDy=0;" parent="1" source="6lm8IAxUkwgbGVxYbnwS-35" target="6lm8IAxUkwgbGVxYbnwS-5" edge="1">
          <mxGeometry relative="1" as="geometry">
            <Array as="points">
              <mxPoint x="-305" y="570" />
              <mxPoint x="50" y="570" />
            </Array>
          </mxGeometry>
        </mxCell>
        <mxCell id="6lm8IAxUkwgbGVxYbnwS-45" value="(9)" style="edgeLabel;html=1;align=center;verticalAlign=middle;resizable=0;points=[];" parent="6lm8IAxUkwgbGVxYbnwS-39" vertex="1" connectable="0">
          <mxGeometry x="-0.2225" y="1" relative="1" as="geometry">
            <mxPoint as="offset" />
          </mxGeometry>
        </mxCell>
        <mxCell id="6lm8IAxUkwgbGVxYbnwS-35" value="&lt;span style=&quot;text-align: justify;&quot;&gt;movie_reviews&lt;/span&gt;" style="ellipse;whiteSpace=wrap;html=1;" parent="1" vertex="1">
          <mxGeometry x="-355" y="490" width="100" height="60" as="geometry" />
        </mxCell>
        <mxCell id="6lm8IAxUkwgbGVxYbnwS-46" style="edgeStyle=orthogonalEdgeStyle;rounded=0;orthogonalLoop=1;jettySize=auto;html=1;exitX=0;exitY=0.5;exitDx=0;exitDy=0;entryX=1;entryY=0.5;entryDx=0;entryDy=0;" parent="1" source="6lm8IAxUkwgbGVxYbnwS-42" target="6lm8IAxUkwgbGVxYbnwS-5" edge="1">
          <mxGeometry relative="1" as="geometry">
            <Array as="points">
              <mxPoint x="-430" y="400" />
              <mxPoint x="-430" y="600" />
              <mxPoint x="120" y="600" />
              <mxPoint x="120" y="400" />
            </Array>
          </mxGeometry>
        </mxCell>
        <mxCell id="6lm8IAxUkwgbGVxYbnwS-47" value="(10)" style="edgeLabel;html=1;align=center;verticalAlign=middle;resizable=0;points=[];" parent="6lm8IAxUkwgbGVxYbnwS-46" vertex="1" connectable="0">
          <mxGeometry x="0.0036" y="2" relative="1" as="geometry">
            <mxPoint x="56" as="offset" />
          </mxGeometry>
        </mxCell>
        <mxCell id="6lm8IAxUkwgbGVxYbnwS-42" value="&lt;span style=&quot;text-align: justify;&quot;&gt;user_reviews&lt;/span&gt;" style="ellipse;whiteSpace=wrap;html=1;" parent="1" vertex="1">
          <mxGeometry x="-355" y="370" width="100" height="60" as="geometry" />
        </mxCell>
        <mxCell id="6lm8IAxUkwgbGVxYbnwS-48" value="unique_id" style="ellipse;whiteSpace=wrap;html=1;" parent="1" vertex="1">
          <mxGeometry x="-60" y="310" width="100" height="60" as="geometry" />
        </mxCell>
        <mxCell id="6lm8IAxUkwgbGVxYbnwS-49" value="plot" style="ellipse;whiteSpace=wrap;html=1;" parent="1" vertex="1">
          <mxGeometry x="340" y="480" width="100" height="60" as="geometry" />
        </mxCell>
        <mxCell id="6lm8IAxUkwgbGVxYbnwS-50" value="cast_info" style="ellipse;whiteSpace=wrap;html=1;" parent="1" vertex="1">
          <mxGeometry x="180" y="480" width="100" height="60" as="geometry" />
        </mxCell>
        <mxCell id="6lm8IAxUkwgbGVxYbnwS-51" value="movie_info" style="ellipse;whiteSpace=wrap;html=1;" parent="1" vertex="1">
          <mxGeometry x="490" y="480" width="100" height="60" as="geometry" />
        </mxCell>
        <mxCell id="6lm8IAxUkwgbGVxYbnwS-53" style="edgeStyle=orthogonalEdgeStyle;rounded=0;orthogonalLoop=1;jettySize=auto;html=1;exitX=0.5;exitY=0;exitDx=0;exitDy=0;entryX=0.5;entryY=1;entryDx=0;entryDy=0;" parent="1" source="6lm8IAxUkwgbGVxYbnwS-52" target="6lm8IAxUkwgbGVxYbnwS-49" edge="1">
          <mxGeometry relative="1" as="geometry" />
        </mxCell>
        <mxCell id="6lm8IAxUkwgbGVxYbnwS-59" value="(13)" style="edgeLabel;html=1;align=center;verticalAlign=middle;resizable=0;points=[];" parent="6lm8IAxUkwgbGVxYbnwS-53" vertex="1" connectable="0">
          <mxGeometry x="-0.135" y="-1" relative="1" as="geometry">
            <mxPoint x="-1" as="offset" />
          </mxGeometry>
        </mxCell>
        <mxCell id="6lm8IAxUkwgbGVxYbnwS-54" style="edgeStyle=orthogonalEdgeStyle;rounded=0;orthogonalLoop=1;jettySize=auto;html=1;exitX=0;exitY=0;exitDx=0;exitDy=0;entryX=0.5;entryY=1;entryDx=0;entryDy=0;" parent="1" source="6lm8IAxUkwgbGVxYbnwS-52" target="6lm8IAxUkwgbGVxYbnwS-50" edge="1">
          <mxGeometry relative="1" as="geometry">
            <Array as="points">
              <mxPoint x="230" y="629" />
            </Array>
          </mxGeometry>
        </mxCell>
        <mxCell id="6lm8IAxUkwgbGVxYbnwS-58" value="(12)" style="edgeLabel;html=1;align=center;verticalAlign=middle;resizable=0;points=[];" parent="6lm8IAxUkwgbGVxYbnwS-54" vertex="1" connectable="0">
          <mxGeometry x="0.5559" relative="1" as="geometry">
            <mxPoint y="-2" as="offset" />
          </mxGeometry>
        </mxCell>
        <mxCell id="6lm8IAxUkwgbGVxYbnwS-55" style="edgeStyle=orthogonalEdgeStyle;rounded=0;orthogonalLoop=1;jettySize=auto;html=1;exitX=1;exitY=0;exitDx=0;exitDy=0;entryX=0.5;entryY=1;entryDx=0;entryDy=0;" parent="1" source="6lm8IAxUkwgbGVxYbnwS-52" target="6lm8IAxUkwgbGVxYbnwS-51" edge="1">
          <mxGeometry relative="1" as="geometry">
            <Array as="points">
              <mxPoint x="540" y="629" />
            </Array>
          </mxGeometry>
        </mxCell>
        <mxCell id="6lm8IAxUkwgbGVxYbnwS-60" value="(14)" style="edgeLabel;html=1;align=center;verticalAlign=middle;resizable=0;points=[];" parent="6lm8IAxUkwgbGVxYbnwS-55" vertex="1" connectable="0">
          <mxGeometry x="0.5242" y="1" relative="1" as="geometry">
            <mxPoint x="1" y="-3" as="offset" />
          </mxGeometry>
        </mxCell>
        <mxCell id="6lm8IAxUkwgbGVxYbnwS-56" style="edgeStyle=orthogonalEdgeStyle;rounded=0;orthogonalLoop=1;jettySize=auto;html=1;exitX=0;exitY=0.5;exitDx=0;exitDy=0;entryX=0;entryY=0.5;entryDx=0;entryDy=0;" parent="1" source="6lm8IAxUkwgbGVxYbnwS-52" target="6lm8IAxUkwgbGVxYbnwS-35" edge="1">
          <mxGeometry relative="1" as="geometry">
            <Array as="points">
              <mxPoint x="-400" y="650" />
              <mxPoint x="-400" y="520" />
            </Array>
          </mxGeometry>
        </mxCell>
        <mxCell id="6lm8IAxUkwgbGVxYbnwS-57" value="(11)" style="edgeLabel;html=1;align=center;verticalAlign=middle;resizable=0;points=[];" parent="6lm8IAxUkwgbGVxYbnwS-56" vertex="1" connectable="0">
          <mxGeometry x="0.2451" relative="1" as="geometry">
            <mxPoint x="105" as="offset" />
          </mxGeometry>
        </mxCell>
        <mxCell id="6lm8IAxUkwgbGVxYbnwS-52" value="page" style="ellipse;whiteSpace=wrap;html=1;" parent="1" vertex="1">
          <mxGeometry x="340" y="620" width="100" height="60" as="geometry" />
        </mxCell>
        <mxCell id="6lm8IAxUkwgbGVxYbnwS-61" value="&lt;span style=&quot;text-align: justify;&quot;&gt;client&lt;/span&gt;" style="ellipse;whiteSpace=wrap;html=1;" parent="1" vertex="1">
          <mxGeometry x="-355" y="255" width="100" height="60" as="geometry" />
        </mxCell>
      </root>
    </mxGraphModel>
  </diagram>
</mxfile>
